<svg xmlns="http://www.w3.org/2000/svg" width="28" height="28" viewBox="0 0 28 28">
  <g id="英语" transform="translate(-65.165 -46.545)">
    <path id="路径_3271" data-name="路径 3271" d="M102.181,60.473A13.854,13.854,0,1,1,88.327,46.546a13.894,13.894,0,0,1,13.854,13.927" transform="translate(-9.016 -0.001)" fill="#fff"/>
    <path id="路径_3272" data-name="路径 3272" d="M98.822,78.763V70.929l-5.193,5.513a15.393,15.393,0,0,0,5.193,2.321Zm-5.193-25.1,5.193,5.513V51.345a15.394,15.394,0,0,0-5.193,2.321Zm-.144,15.377H88.436a16.259,16.259,0,0,0,1.587,3.627Zm0-7.979-3.462-3.627a11.575,11.575,0,0,0-1.587,3.627Zm16.444,15.377-5.337-5.513v7.979a22.42,22.42,0,0,0,5.337-2.466Zm0-7.4,3.462,3.627a16.735,16.735,0,0,0,1.731-3.627h-5.193Zm0-7.979h5.193a16.735,16.735,0,0,0-1.731-3.627l-3.462,3.627Zm0-7.4-5.337,5.513V51.2a17.908,17.908,0,0,1,5.337,2.466Z" transform="translate(-22.541 -4.508)" fill="#00237d"/>
    <path id="路径_3273" data-name="路径 3273" d="M90.421,68.887l-4.907-5.223H83.349l6.061,6.383a7.255,7.255,0,0,0,1.01-1.161ZM69.206,50.753a7.255,7.255,0,0,0-1.01,1.161l4.33,4.5H74.69l-5.484-5.658Zm14.432,5.8,5.629-5.8a7.239,7.239,0,0,0-1.155-1.016l-6.639,6.819h2.165Zm-4.474,17.99a5.384,5.384,0,0,0,1.588-.145V62.069H92.874c0-.58.144-1.016.144-1.6a12.841,12.841,0,0,0-.289-2.466H80.751V46.691c-.577,0-1.155-.145-1.588-.145a6.99,6.99,0,0,0-1.732.145V58.152H65.453a14.365,14.365,0,0,0-.289,2.466,5.981,5.981,0,0,0,.144,1.6H77.288V74.545h1.876ZM77,63.665l-7.072,7.254a8.731,8.731,0,0,1-1.155-1.161l6.061-6.238H77Z" transform="translate(0)" fill="#cd1428"/>
  </g>
</svg>
