<svg xmlns="http://www.w3.org/2000/svg" viewBox="0 0 900 420"><defs><linearGradient id="g" x1="0" x2="1"><stop stop-color="#ff5a00"/><stop offset="1" stop-color="#ff8a28"/></linearGradient></defs><rect x="330" y="130" width="360" height="98" rx="48" fill="#1b1e24"/><rect x="390" y="148" width="210" height="62" rx="31" fill="url(#g)"/><rect x="610" y="100" width="120" height="68" rx="28" fill="#2d323a"/><rect x="650" y="70" width="44" height="100" rx="22" fill="#111318"/><circle cx="256" cy="210" r="128" fill="#d7dbe0"/><circle cx="256" cy="210" r="98" fill="#f2f3f5"/><circle cx="256" cy="210" r="40" fill="#b8c0ca"/><rect x="90" y="196" width="245" height="34" rx="17" fill="#111318" transform="rotate(-18 90 196)"/><rect x="720" y="160" width="130" height="42" rx="21" fill="#111318"/><rect x="720" y="205" width="30" height="90" rx="15" fill="#111318"/><path d="M205 105a130 130 0 0 1 180 110" fill="none" stroke="#ff5a00" stroke-width="20" stroke-linecap="round"/><text x="455" y="190" font-family="Arial" font-size="36" font-weight="700" fill="white">COWIN</text></svg>