<svg xmlns="http://www.w3.org/2000/svg" viewBox="0 0 448 512" aria-hidden="true"><path fill="#ffffff" d="M380.9 97.1C339 55.1 283.2 32 223.9 32c-122.4 0-222 99.6-222 222 0 39.1 10.2 77.3 29.6 111L0 480l117.7-30.9c32.4 17.7 68.9 27 106.1 27h.1c122.3 0 224.1-99.6 224.1-222 0-59.3-25.2-115-67.1-157zm-157 341.6c-33.2 0-65.7-8.9-94-25.7l-6.7-4-69.8 18.3L72 359.2l-4.4-7c-18.5-29.4-28.2-63.3-28.2-98.2 0-101.7 82.8-184.5 184.6-184.5 49.3 0 95.6 19.2 130.4 54.1 34.8 34.9 56.2 81.2 56.1 130.5 0 101.8-84.9 184.6-186.6 184.6zm101.7-138c-5.6-2.8-33.2-16.4-38.3-18.2-5.1-1.9-8.8-2.8-12.5 2.8s-14.4 18.2-17.7 22-6.5 4.2-12.1 1.4c-33.3-16.7-55.2-29.8-77.2-67.6-5.8-10-5.8-15.3-2.9-18.7 2.6-3.1 5.6-8.2 8.4-13.7 2.8-5.6 3.7-9.3 5.6-15.5 1.9-5.6.9-10.3-.5-14.5-1.4-4.2-12.5-30.1-17.1-41.2-4.5-10.8-9.1-9.3-12.5-9.5-3.2-.2-6.8-.2-10.5-.2-3.7 0-9.6 1.4-14.6 6.9-5.1 5.6-19.3 18.9-19.3 46.1s19.8 53.5 22.6 57.2c2.8 3.7 39 59.6 94.6 83.6 13.2 5.7 23.5 9.1 31.5 11.7 13.2 4.2 25.2 3.6 34.7 2.2 10.6-1.6 33.2-13.6 37.9-26.8 4.7-13.2 4.7-24.5 3.3-26.8-1.3-2.5-5-3.9-10.5-6.6z"/></svg>
